<svg xmlns="http://www.w3.org/2000/svg" version="1.1" xmlns:xlink="http://www.w3.org/1999/xlink" width="2000" height="128" viewBox="0 0 2000 128"><svg xml:space="preserve" width="2000" height="128" data-version="2" data-id="lg_b1ciyLLAe9L073m1P2" viewBox="0 0 562 128" x="0" y="0"><rect width="100%" height="100%" fill="transparent"></rect><path fill="#2b2b2b" d="m198.865 34.08 3.32 58.56h-7.14l-1.79-30.6q-.51-8.07-.51-21.16l-9.86 41.22h-7.39l-10.54-41.22q.17 3.06.17 8.16 0 7.82-.34 13l-1.53 30.6h-6.97l3.31-58.56h10.29l9.52 40.12 9.09-40.12zm52.87 29.32q0 13.69-5.56 21.93-5.57 8.25-15.94 8.25-10.46 0-15.98-8.08-5.53-8.07-5.53-22.01 0-8.93 2.47-15.81 2.46-6.89 7.31-10.71 4.84-3.83 11.73-3.83 10.37 0 15.94 8.21 5.56 8.2 5.56 22.05m-7.65 0q0-11.98-3.31-18.02-3.32-6.03-10.54-6.03-7.23 0-10.54 6.08-3.32 6.07-3.32 18.06 0 11.9 3.36 17.89t10.5 5.99q7.22 0 10.54-5.99 3.31-5.99 3.31-17.98m27.97 29.24h-7.4V34.08h7.4zm.42-31.28 22.95-27.28h8.59l-22.87 26.86 24.48 31.7h-9.26zm52.28-21.16v19.72h21.76v6.03h-21.76v20.74h26.69v5.95h-34V34.08h33.23l-.85 6.12zm78.62 36.21q0 5.1-2.55 8.97-2.55 3.86-7.39 6.03-4.85 2.17-11.48 2.17-6.37 0-11.6-1.91-5.23-1.92-8.97-5.49l4.42-5.01q3.23 3.06 7.19 4.67 3.95 1.62 9.05 1.62 5.78 0 9.69-2.81 3.91-2.8 3.91-8.07 0-2.98-1.11-4.93-1.1-1.96-3.86-3.49-2.77-1.53-7.78-2.97-9.52-2.81-14.2-6.59-4.67-3.78-4.67-10.33 0-4.33 2.38-7.82 2.38-3.48 6.71-5.39 4.34-1.92 9.86-1.92 5.78 0 10.33 1.7t8.37 5.02l-4.42 4.76q-6.03-5.27-14.02-5.27-5.1 0-8.42 2.21-3.31 2.21-3.31 6.46 0 2.55 1.36 4.33 1.36 1.79 4.5 3.32 3.15 1.53 8.84 3.14 8.25 2.38 12.71 6.21 4.46 3.82 4.46 11.39m23.38-36.21v19.72h21.76v6.03h-21.76v20.74h26.69v5.95h-34V34.08h33.23l-.85 6.12zm44.54 52.44V34.08h7.31V86.1h26.77l-.93 6.54zm51 0V34.08h7.31V86.1h26.77l-.93 6.54z"></path><path fill="#2b2b2b" fill-rule="evenodd" d="M105.207 72.54v-2.802h6.933l3.642-34.734H31.606l2.38 22.13h7.354v2.8h-7.073l2.661 24.65h66.529v2.802H37.208l.42 4.202h72.201l2.031-19.048zm7.003 33.194a11.905 11.905 0 0 1 3.642 8.754q0 4.972-3.712 8.543-3.431 3.572-8.543 3.572c-5.112 0-6.303-1.19-8.684-3.572a12.045 12.045 0 0 1-3.572-8.543q0-5.113 3.572-8.684a11.765 11.765 0 0 1 8.684-3.572q5.042 0 8.613 3.502m-12.395 4.972a5.602 5.602 0 0 0-1.47 3.782q0 2.1 1.54 3.571 1.54 1.54 3.712 1.54c2.17 0 2.66-.49 3.641-1.47a5.042 5.042 0 0 0 1.611-3.641 5.182 5.182 0 0 0-1.61-3.782q-1.401-1.47-3.642-1.47c-2.241 0-2.76.49-3.782 1.47m16.247-12.115H31.256l-7.423-70.24h.07L21.732 8.392H5.625V1.39h22.48l2.8 26.612h92.65zM78.456 76.32H67.95V62.035H57.237l15.897-20.519 15.826 20.52H78.456zm-45.87 38.167q0-5.113 3.572-8.684a11.765 11.765 0 0 1 8.684-3.572q5.252 0 8.613 3.572a11.765 11.765 0 0 1 3.572 8.684q0 5.112-3.572 8.543a11.205 11.205 0 0 1-8.613 3.572q-5.113 0-8.684-3.572a12.045 12.045 0 0 1-3.572-8.543m12.256-5.253q-2.241 0-3.782 1.471a5.602 5.602 0 0 0-1.47 3.782q0 2.1 1.54 3.571 1.54 1.54 3.712 1.54c2.17 0 2.633-.49 3.571-1.47l.14-.07q1.47-1.47 1.47-3.571 0-2.241-1.54-3.782v-.07q-1.4-1.4-3.641-1.4"></path></svg></svg>